<svg version="1.1" id="Layer_1" xmlns="http://www.w3.org/2000/svg" xmlns:xlink="http://www.w3.org/1999/xlink" x="0px" y="0px" viewBox="0 0 164.9 44" style="enable-background:new 0 0 164.9 44;" xml:space="preserve">
 <style type="text/css">
  .st0{fill-rule:evenodd;clip-rule:evenodd;fill:#18B4E9;}
	.st1{fill:#18B4E9;}
	.st2{fill-rule:evenodd;clip-rule:evenodd;fill:#5061AA;}
	.st3{fill-rule:evenodd;clip-rule:evenodd;fill:#8B328A;}
	.st4{fill-rule:evenodd;clip-rule:evenodd;fill:#5D80C0;}
	.st5{fill-rule:evenodd;clip-rule:evenodd;fill:#E94E29;}
	.st6{fill-rule:evenodd;clip-rule:evenodd;fill:#D5262A;}
	.st7{fill-rule:evenodd;clip-rule:evenodd;fill:#F6A022;}
	.st8{fill-rule:evenodd;clip-rule:evenodd;fill:#6A95CD;}
	.st9{fill-rule:evenodd;clip-rule:evenodd;fill:#306FB6;}
	.st10{fill-rule:evenodd;clip-rule:evenodd;fill:#73C8DD;}
	.st11{fill-rule:evenodd;clip-rule:evenodd;fill:#92C143;}
	.st12{fill-rule:evenodd;clip-rule:evenodd;fill:#169BD6;}
	.st13{fill-rule:evenodd;clip-rule:evenodd;fill:#199AA6;}
	.st14{fill-rule:evenodd;clip-rule:evenodd;fill:#A5BFDF;}
	.st15{fill-rule:evenodd;clip-rule:evenodd;fill:#3FB7AF;}
	.st16{fill-rule:evenodd;clip-rule:evenodd;fill:#AE2258;}
	.st17{fill-rule:evenodd;clip-rule:evenodd;fill:#79C199;}
	.st18{fill-rule:evenodd;clip-rule:evenodd;fill:#E5DF1F;}
	.st19{fill-rule:evenodd;clip-rule:evenodd;fill:#33BACF;}
	.st20{fill-rule:evenodd;clip-rule:evenodd;fill:#6CA9DB;}
	.st21{fill-rule:evenodd;clip-rule:evenodd;fill:#DE5097;}
	.st22{fill-rule:evenodd;clip-rule:evenodd;fill:#604596;}
	.st23{fill-rule:evenodd;clip-rule:evenodd;fill:#FAD803;}
	.st24{fill:#5061AA;}
	.st25{fill-rule:evenodd;clip-rule:evenodd;fill:#0BB8E7;}
	.st26{fill-rule:evenodd;clip-rule:evenodd;fill:#41AD4C;}
	.st27{fill-rule:evenodd;clip-rule:evenodd;fill:#E7B720;}
	.st28{fill-rule:evenodd;clip-rule:evenodd;fill:#B9CF37;}
 </style>
 <desc>
  Created with Sketch.
 </desc>
 <g id="Page-1">
  <g id="Group">
   <path id="Path" class="st0" d="M96.6,14.7h-9.3V30c0,5-3.1,6.4-5.1,6.4c-3,0-4.6-1.3-4.6-5.1V14.7h-9.3v17.1
			c0,7.4,2.4,12.2,10.5,12.2c3.3,0,6.9-1.8,8.7-4.7h0.1v3.9h9V14.7z">
   </path>
   <path id="Shape" class="st1" d="M98.8,43.2h9.3V4.1h-9.3V43.2L98.8,43.2z M40.3,43.2h27.1V36H52.1l14.2-14.2v-7.1H41.4v7.1h13
			L40.3,35.9L40.3,43.2L40.3,43.2z M0,43.2h10.5l2.5-7h13.7l2.4,7h10.6L25,4.1H14.6L0,43.2L0,43.2z M19.7,14.9h0.1l4.3,13.7h-8.9
			L19.7,14.9z">
   </path>
   <polygon id="Path_1_" class="st2" points="148.6,4.1 151.1,4.1 151.1,6.1 148.5,6.1 		">
   </polygon>
   <polygon id="Path_2_" class="st3" points="139.2,25.6 147,25.6 147,33.9 139.2,33.9 		">
   </polygon>
   <polygon id="Path_3_" class="st4" points="144.3,35.7 149.4,35.7 149.4,38.8 144.3,38.8 		">
   </polygon>
   <polygon id="Path_4_" class="st5" points="141.2,37.1 147.4,37.1 147.4,43.2 141.2,43.2 		">
   </polygon>
   <polygon id="Path_5_" class="st6" points="148.9,31.6 154.2,31.6 154.2,33.9 148.9,33.9 		">
   </polygon>
   <polygon id="Path_6_" class="st7" points="146.9,27.4 152.4,27.4 152.4,28.7 146.9,28.7 		">
   </polygon>
   <polygon id="Path_7_" class="st8" points="154.1,31.6 157.9,31.6 157.9,32.6 154.1,32.6 		">
   </polygon>
   <polygon id="Path_8_" class="st9" points="146.9,20.8 152.1,20.8 152.1,27.4 146.9,27.4 		">
   </polygon>
   <polygon id="Path_9_" class="st10" points="136.9,15.7 147,15.7 147,25.6 136.9,25.6 		">
   </polygon>
   <polygon id="Path_10_" class="st11" points="131,15.7 137.7,15.7 137.7,21.1 131,21.1 		">
   </polygon>
   <polygon id="Path_11_" class="st2" points="139.7,6.4 151.2,6.4 151.2,15.7 139.7,15.7 		">
   </polygon>
   <polygon id="Path_12_" class="st12" points="152.1,16.9 160.4,16.9 160.4,27 152.1,27 		">
   </polygon>
   <polygon id="Path_13_" class="st7" points="150.8,22.7 157.9,22.7 157.9,31.6 150.8,31.6 		">
   </polygon>
   <polygon id="Path_14_" class="st6" points="146.9,28.7 152.2,28.7 152.2,33.9 146.9,33.9 		">
   </polygon>
   <polygon id="Path_15_" class="st13" points="143.9,32 150.7,32 150.7,35.7 143.9,35.7 		">
   </polygon>
   <polygon id="Path_16_" class="st14" points="157.9,26.1 159.4,26.1 159.4,30.6 157.9,30.6 		">
   </polygon>
   <polygon id="Path_17_" class="st15" points="160.4,16.6 164.2,16.6 164.2,18.9 160.4,18.9 		">
   </polygon>
   <polygon id="Path_18_" class="st16" points="160.1,18.9 162.8,18.9 162.8,20.5 160.1,20.5 		">
   </polygon>
   <polygon id="Path_19_" class="st17" points="146.9,11.7 152.1,11.7 152.1,20.8 146.9,20.8 		">
   </polygon>
   <polygon id="Path_20_" class="st18" points="152.1,8.1 159.1,8.1 159.1,16.9 152.1,16.9 		">
   </polygon>
   <polygon id="Path_21_" class="st19" points="151.2,6.4 156.2,6.4 156.2,14.7 151.2,14.7 		">
   </polygon>
   <polygon id="Path_22_" class="st20" points="158,14.5 164.9,14.5 164.9,16.9 158,16.9 		">
   </polygon>
   <polygon id="Path_23_" class="st21" points="159.1,9.1 162.4,9.1 162.4,14.5 159.1,14.5 		">
   </polygon>
   <polygon id="Path_24_" class="st22" points="161.4,10.8 164.4,10.8 164.4,13 161.4,13 		">
   </polygon>
   <polygon id="Path_25_" class="st23" points="160.6,13 164.9,13 164.9,15.3 160.6,15.3 		">
   </polygon>
   <path id="Shape_1_" class="st24" d="M148.5,4h2.6v2.1h-2.6V4z M139.7,4h4.7v5.2h-4.7V4z">
   </path>
   <polygon id="Path_26_" class="st25" points="125.2,4 139.8,4 139.8,15.7 125.2,15.7 		">
   </polygon>
   <polygon id="Path_27_" class="st26" points="132.7,0 137.7,0 137.7,6.6 132.7,6.6 		">
   </polygon>
   <polygon id="Path_28_" class="st27" points="122.1,14.7 131.5,14.7 131.5,18.4 122.1,18.4 		">
   </polygon>
   <polygon id="Path_29_" class="st28" points="144.4,0.6 148.1,0.6 148.1,6.4 144.4,6.4 		">
   </polygon>
   <polygon id="Path_30_" class="st11" points="149.3,22.7 150.8,22.7 150.8,24.1 149.3,24.1 		">
   </polygon>
  </g>
 </g>
</svg>