<?xml version="1.0" encoding="utf-8"?>
<!-- Generator: Adobe Illustrator 25.4.1, SVG Export Plug-In . SVG Version: 6.00 Build 0)  -->
<svg version="1.1" id="Layer_1" xmlns="http://www.w3.org/2000/svg" xmlns:xlink="http://www.w3.org/1999/xlink" x="0px" y="0px"
	 viewBox="0 0 841.9 595.3" style="enable-background:new 0 0 841.9 595.3;" xml:space="preserve">
<g>
	<path d="M644.8,367.1c0.9-24.7-15.5-44.1-41.7-44.1c-2.7,0-5.5,0.4-8.3,0.9l47.4-61h-92.1V286h45.3l-61.8,81.1h29.7
		c9.7-13.2,21.4-22.2,35.4-22.2c13.7,0,21.2,8.7,20.7,22.2H644.8z"/>
	<path d="M529.5,286v-23.1h-33.7v-6.8c0-18.8-12.3-30.6-32.1-30.6c-19.1,0-33,12.5-33,30.4c0,19.1,13.2,30,36,30h4.2v50.2
		c0,21.4,11.1,33.5,33.5,33.5c7.8,0,14.1-1.2,17.5-3v-21.7c-3.1,1.2-6.6,2.1-11.5,2.1c-10.4,0-14.6-5.6-14.6-15.3V286H529.5z
		 M464.3,262.9c-6.4,0-10.2-3.1-10.2-8.5c0-4.9,3.3-8.2,8-8.2c5.4,0,8.7,3.8,8.7,10.1v6.6H464.3z"/>
	<path d="M386.7,260.7c-36.8-4.1-65.4,24.5-61.3,61.3c2.6,23.3,24.1,44.8,47.4,47.4c36.8,4.1,65.3-24.5,61.3-61.3
		C431.5,284.8,410,263.3,386.7,260.7z"/>
	<path d="M310,228.2h-25v26.1c0,12.1-0.4,17.5-1.5,27.7c-9.6-15-23.6-21.6-40-21.6c-29.9,0-46.4,25.5-46.4,54
		c0,29.4,16.5,55.4,46.4,55.4c16.4,0,30.4-6.6,40-21.6c1.3,9.8,1.5,14.8,1.5,19h25v-5.2c0-16.9-2.9-33.8-6.8-47.4
		C307.5,301,310,285,310,256V228.2z M245.9,345.7c-16.3,0-23.4-15.1-23.4-31.4c0-15.5,7.1-30,23.4-30c12.5,0,24.1,11.6,29.7,30
		C270,333.6,258.4,345.7,245.9,345.7z"/>
</g>
</svg>
