<svg width="200px" heightWidthRatio="0.2727272727272727" viewBox="0 0 264 72" data-testid="Component:BrandIcon:MasterContainer" class="sc-kUouGy dnRwpl"><g clip-path="url(#clip0_5817_2453)"><path d="M7.32195 72C5.75182 72 4.18169 71.441 2.9567 70.318C0.431361 67.9969 0.33657 64.1469 2.74767 61.7139L62.0967 1.88365C64.5078 -0.546894 68.5109 -0.636824 71.0387 1.68191C73.564 4.00308 73.6588 7.85307 71.2477 10.286L11.8987 70.1163C10.6567 71.368 8.99174 72 7.32195 72Z" fill="#FF7F00"></path><path d="M13.6488 6.08365C13.6488 2.72464 10.8172 0 7.32452 0C3.83183 0 1.00024 2.72464 1.00024 6.08365V57.7206L13.6488 44.9699V6.08365Z" fill="#E74092"></path><path d="M27.1066 72C30.5993 72 33.4309 69.2754 33.4309 65.9164V54.1671L20.8552 66.8448C21.3195 69.7639 23.942 72 27.1066 72Z" fill="#00A433"></path><path d="M33.4308 6.08365C33.4308 2.72464 30.5992 0 27.1065 0C23.6138 0 20.7822 2.72464 20.7822 6.08365V37.7755L33.4308 25.0249V6.08365Z" fill="#00A433"></path><path d="M46.8887 0C43.396 0 40.5645 2.72464 40.5645 6.08365V17.8329L53.1401 5.15518C52.6734 2.2361 50.0533 0 46.8887 0Z" fill="#9D45E8"></path><path d="M40.5645 65.9163C40.5645 69.2754 43.396 72 46.8887 72C50.3814 72 53.213 69.2754 53.213 65.9163V34.2245L40.5645 46.9751V65.9163Z" fill="#9D45E8"></path><path d="M60.3467 65.9163C60.3467 69.2753 63.1783 72 66.671 72C70.1636 72 72.9952 69.2753 72.9952 65.9163V14.2794L60.3467 27.0301V65.9139V65.9163Z" fill="#1383EB"></path><path d="M96.6127 67.3576C94.3086 65.9917 93.1565 64.0472 93.1565 61.5268C93.1565 60.0879 93.5502 58.9188 94.345 58.0171C95.1374 57.1178 96.1072 56.6681 97.2593 56.6681C98.4818 56.6681 100.173 57.2441 102.334 58.3962C104.638 59.4754 106.743 60.3042 108.651 60.8802C110.557 61.4563 112.987 61.7431 115.94 61.7431C118.894 61.7431 121.322 61.24 123.013 60.2313C124.705 59.225 125.551 57.8202 125.551 56.0192C125.551 54.7966 125.208 53.8244 124.525 53.1049C123.84 52.3855 122.617 51.7195 120.855 51.107C119.09 50.497 116.41 49.7945 112.81 49.0022C106.403 47.7067 101.814 45.8716 99.0433 43.4946C96.27 41.1199 94.887 37.8436 94.887 33.6679C94.887 30.5009 95.8228 27.6401 97.6943 25.0832C99.5658 22.5287 102.137 20.5478 105.414 19.1454C108.688 17.743 112.414 17.0405 116.589 17.0405C119.613 17.0405 122.527 17.4197 125.334 18.1732C128.142 18.9291 130.66 20.0277 132.893 21.4665C135.198 22.9079 136.35 24.8134 136.35 27.1905C136.35 28.6318 135.953 29.8349 135.161 30.8071C134.369 31.7793 133.397 32.2655 132.247 32.2655C131.455 32.2655 130.682 32.1026 129.926 31.7793C129.17 31.4561 128.215 30.97 127.065 30.321C124.977 29.2419 123.179 28.4301 121.667 27.8905C120.155 27.3509 118.281 27.0811 116.052 27.0811C113.388 27.0811 111.283 27.6207 109.735 28.6998C108.187 29.779 107.414 31.2568 107.414 33.1259C107.414 34.995 108.206 36.2953 109.789 37.2286C111.371 38.1644 114.431 39.1026 118.966 40.0359C123.789 41.0446 127.568 42.1967 130.305 43.4921C133.039 44.7876 135.003 46.4088 136.189 48.3508C137.378 50.2952 137.971 52.7768 137.971 55.8004C137.971 60.6955 135.936 64.6184 131.87 67.5691C127.804 70.5222 122.386 71.9951 115.62 71.9951C107.771 71.9951 101.437 70.4493 96.6152 67.3528L96.6127 67.3576Z" fill="white"></path><path d="M181.159 66.8959C181.159 68.624 180.457 69.9365 179.054 70.8358C177.652 71.7351 175.654 72.1118 173.061 71.9684L170.144 71.7521C158.05 70.8892 152.005 64.4094 152.005 52.3175V27.4822H146.607C144.662 27.4822 143.167 27.0495 142.125 26.1867C141.082 25.3214 140.559 24.0648 140.559 22.4072C140.559 20.7496 141.082 19.493 142.125 18.6277C143.167 17.7648 144.662 17.3322 146.607 17.3322H152.005V6.37045C152.005 4.42602 152.615 2.88019 153.84 1.72812C155.065 0.576039 156.72 0 158.808 0C160.896 0 162.442 0.576039 163.667 1.72812C164.889 2.88019 165.502 4.42845 165.502 6.37045V17.3346H174.679C176.624 17.3346 178.116 17.7673 179.161 18.6301C180.204 19.4954 180.726 20.7544 180.726 22.4096C180.726 24.0648 180.204 25.3238 179.161 26.1891C178.116 27.052 176.624 27.4846 174.679 27.4846H165.502V53.2921C165.502 58.6199 167.949 61.4636 172.844 61.8233L175.761 62.0396C179.361 62.2559 181.159 63.8747 181.159 66.8983V66.8959Z" fill="white"></path><path d="M263.329 65.846C263.329 67.4307 262.716 68.8525 261.494 70.1116C260.269 71.3706 258.83 72.0025 257.175 72.0025C255.374 72.0025 253.828 71.2466 252.532 69.7348L237.307 52.8912L222.082 69.7348C220.714 71.1761 219.168 71.8956 217.44 71.8956C215.855 71.8956 214.453 71.2855 213.228 70.0605C212.003 68.8379 211.393 67.4331 211.393 65.8508C211.393 64.2685 212.039 62.7203 213.337 61.4224L229.102 44.253L214.2 28.0559C212.905 26.7604 212.256 25.285 212.256 23.6298C212.256 21.9746 212.866 20.5528 214.091 19.3642C215.313 18.1757 216.718 17.5826 218.303 17.5826C220.031 17.5826 221.577 18.3021 222.945 19.7434L237.307 35.5079L251.669 19.7434C253.035 18.3045 254.584 17.5826 256.312 17.5826C258.04 17.5826 259.389 18.1757 260.577 19.3642C261.766 20.5528 262.359 21.9746 262.359 23.6298C262.359 25.285 261.712 26.7604 260.414 28.0559L245.513 44.253L261.384 61.4224C262.68 62.7178 263.329 64.1932 263.329 65.8508V65.846Z" fill="white"></path><path d="M199.731 19.0919C198.436 18.0127 196.817 17.4731 194.872 17.4731C192.928 17.4731 191.326 18.0127 190.067 19.0919C188.806 20.171 188.176 21.7558 188.176 23.8436V65.5226C188.176 67.6104 188.806 69.2121 190.067 70.3278C191.326 71.4434 192.928 72.0024 194.872 72.0024C196.817 72.0024 198.436 71.4434 199.731 70.3278C201.027 69.2121 201.676 67.6104 201.676 65.5226V23.8412C201.676 21.7533 201.029 20.171 199.731 19.0895V19.0919Z" fill="white"></path><path d="M189.834 10.359C191.09 11.477 192.787 12.0336 194.923 12.0336C197.06 12.0336 198.756 11.477 200.013 10.359C201.27 9.24336 201.899 7.78017 201.899 5.97185C201.899 4.16352 201.255 2.71492 199.967 1.62846C198.679 0.542011 196.997 0 194.923 0C192.85 0 191.088 0.542011 189.834 1.62846C188.577 2.71492 187.948 4.16109 187.948 5.97185C187.948 7.7826 188.575 9.24336 189.834 10.359Z" fill="white"></path></g><defs><clipPath id="clip0_5817_2453"><rect width="264" height="72" fill="white"></rect></clipPath></defs></svg>